# xmcd CD Database Entry
#
# Track frame offsets:
# 150
# 30445
# 55737
# 77897
# 103641
# 127971
# 148143
# 172015
# 192866
# 217815
# 232123
# 264084
# 284946
# 311488
#
# Disc length: 4397 seconds
#
# Revision: 2
# Processed by: cddbd v1.4PL0 Copyright (c) Steve Scherf et al.
# Submitted via: tcd 2.0b
#
DISCID=c8112b0e
DTITLE=George Michael - Ladies and Gentlemen
DYEAR=1900
DGENRE=
TTITLE0=Jesus to a child
TTITLE1=Father Figure
TTITLE2=
TTITLE3=
TTITLE4=
TTITLE5=
TTITLE6=
TTITLE7=
TTITLE8=
TTITLE9=
TTITLE10=
TTITLE11=
TTITLE12=
TTITLE13=
EXTD=
EXTT0=
EXTT1=
EXTT2=
EXTT3=
EXTT4=
EXTT5=
EXTT6=
EXTT7=
EXTT8=
EXTT9=
EXTT10=
EXTT11=
EXTT12=
EXTT13=
PLAYORDER=
